<svg xmlns="http://www.w3.org/2000/svg" version="1.1" xmlns:xlink="http://www.w3.org/1999/xlink" xmlns:svgjs="http://svgjs.dev/svgjs" width="1000" height="199" viewBox="0 0 1000 199"><g transform="matrix(1,0,0,1,-0.6060606060606233,-0.33346677195110885)"><svg viewBox="0 0 396 79" data-background-color="#ffffff" preserveAspectRatio="xMidYMid meet" height="199" width="1000" xmlns="http://www.w3.org/2000/svg" xmlns:xlink="http://www.w3.org/1999/xlink"><g id="tight-bounds" transform="matrix(1,0,0,1,0.2400000000000091,0.1323812813273264)"><svg viewBox="0 0 395.52 78.73523743734533" height="78.73523743734533" width="395.52"><g><svg viewBox="0 0 492.2047106265655 97.98203569721503" height="78.73523743734533" width="395.52"><g transform="matrix(1,0,0,1,96.68471062656549,13.541656163652732)"><svg viewBox="0 0 395.52 70.89872336990956" height="70.89872336990956" width="395.52"><g id="textblocktransform"><svg viewBox="0 0 395.52 70.89872336990956" height="70.89872336990956" width="395.52" id="textblock"><g><svg viewBox="0 0 395.52 70.89872336990956" height="70.89872336990956" width="395.52"><g transform="matrix(1,0,0,1,0,0)"><svg width="395.52" viewBox="-3.66 -39.79 245.65 44.38" height="70.89872336990956" data-palette-color="url(#5179139b-cd32-401f-bc7e-7463cadcfa2c)"><g class="wordmark-text-0" data-fill-palette-color="primary" id="text-0"></g></svg></g></svg></g></svg></g></svg></g><g><svg viewBox="0 0 82.64825262686412 97.98203569721503" height="97.98203569721503" width="82.64825262686412"><g><svg xmlns="http://www.w3.org/2000/svg" xmlns:xlink="http://www.w3.org/1999/xlink" version="1.1" x="0" y="0" viewBox="3.872 0.5338863270091985 41.222986645054384 48.8711136729908" enable-background="new 0 0 50 50" xml:space="preserve" height="97.98203569721503" width="82.64825262686412" class="icon-icon-0" data-fill-palette-color="accent" id="icon-0"></svg></g></svg></g></svg></g><defs></defs><mask id="4949850e-2605-4fdd-afc2-71b3664f7959"><g id="SvgjsG1387"><svg viewBox="0 0 395.52 78.73523743734533" height="78.73523743734533" width="395.52"><g><svg viewBox="0 0 492.2047106265655 97.98203569721503" height="78.73523743734533" width="395.52"><g transform="matrix(1,0,0,1,96.68471062656549,13.541656163652732)"><svg viewBox="0 0 395.52 70.89872336990956" height="70.89872336990956" width="395.52"><g id="SvgjsG1386"><svg viewBox="0 0 395.52 70.89872336990956" height="70.89872336990956" width="395.52" id="SvgjsSvg1385"><g><svg viewBox="0 0 395.52 70.89872336990956" height="70.89872336990956" width="395.52"><g transform="matrix(1,0,0,1,0,0)"><svg width="395.52" viewBox="-3.66 -39.79 245.65 44.38" height="70.89872336990956" data-palette-color="url(#5179139b-cd32-401f-bc7e-7463cadcfa2c)"><g class="wordmark-text-0" data-fill-palette-color="primary" id="SvgjsG1384"><path d="M25.44-34.33L25.44-34.33 24.07-24.02Q23.36-24.22 22.66-24.29 21.95-24.37 21.24-24.37L21.24-24.37Q19.43-24.37 17.8-23.89 16.16-23.41 14.9-22.44 13.65-21.46 12.9-20 12.16-18.53 12.16-16.55L12.16-16.55Q12.16-15.28 12.56-14.36 12.96-13.43 13.7-12.82 14.43-12.21 15.43-11.91 16.43-11.62 17.63-11.62L17.63-11.62Q18.53-11.62 19.51-11.82 20.48-12.01 21.44-12.33 22.39-12.65 23.29-13.06 24.19-13.48 24.95-13.92L24.95-13.92 23.97-2.44Q23.02-1.95 21.91-1.57 20.8-1.2 19.63-0.92 18.46-0.63 17.29-0.49 16.11-0.34 15.04-0.34L15.04-0.34Q11.94-0.34 9.25-1.49 6.57-2.64 4.59-4.64 2.61-6.64 1.48-9.36 0.34-12.08 0.34-15.23L0.34-15.23Q0.34-19.41 1.54-23.11 2.73-26.81 5.05-29.59 7.37-32.37 10.8-33.98 14.23-35.6 18.7-35.6L18.7-35.6Q20.39-35.6 22.16-35.33 23.93-35.06 25.44-34.33ZM55.59-23.54L55.59-23.54Q55.59-21.63 55.26-20.08 54.93-18.53 54.22-17.24 53.51-15.94 52.39-14.84 51.27-13.75 49.68-12.74L49.68-12.74 55.49-2.39 44.5-0.24 40.74-10.64 37.72-10.55 37.28-0.39 26.78-0.39Q26.9-5.96 27.01-11.47 27.12-16.99 27.27-22.56L27.27-22.56Q27.32-25.37 27.37-28.13 27.41-30.88 27.56-33.69L27.56-33.69Q29.27-34.33 30.93-34.74 32.59-35.16 34.26-35.39 35.94-35.62 37.66-35.71 39.38-35.79 41.18-35.79L41.18-35.79Q43.97-35.79 46.57-35.02 49.17-34.25 51.17-32.71 53.17-31.18 54.38-28.88 55.59-26.59 55.59-23.54ZM44.65-22.75L44.65-22.75Q44.65-23.78 44.37-24.63 44.09-25.49 43.54-26.11 42.99-26.73 42.17-27.09 41.35-27.44 40.26-27.44L40.26-27.44Q39.77-27.44 39.3-27.38 38.84-27.32 38.4-27.2L38.4-27.2 38.01-18.12 38.6-18.12Q39.65-18.12 40.73-18.38 41.82-18.65 42.69-19.21 43.55-19.78 44.1-20.65 44.65-21.53 44.65-22.75ZM78.54-34.96L88.06-2.1 75.95-0.54 74.48-6.05 68.92-6.05 67.7-0.54 55.24-1.76 64.96-34.28 78.54-34.96ZM69.94-13.53L73.6-13.53 71.75-22.02 69.94-13.53ZM107.19-34.96L118.43-34.23 109.49-0.24 97.38 0.44 86.39-33.89 97.97-34.96 102.65-14.94 107.19-34.96ZM119.81-35.21L142.32-35.21Q142.18-32.91 142.06-30.66 141.93-28.42 141.74-26.12L141.74-26.12 131.39-25.59 131.14-22.51 138.42-22.51 137.88-14.94 130.56-14.7 130.31-11.13 136.37-11.13 140.66-11.13Q140.52-8.45 140.36-5.8 140.2-3.15 140.08-0.49L140.08-0.49 119.03 0 119.81-35.21ZM171.57-8.69L171.57-8.69Q171.57-6.67 170.82-5.2 170.08-3.74 168.84-2.71 167.59-1.68 165.97-1.04 164.34-0.39 162.59-0.02 160.83 0.34 159.06 0.46 157.29 0.59 155.75 0.59L155.75 0.59Q154.24 0.59 152.61 0.48 150.99 0.37 149.38 0.1 147.77-0.17 146.2-0.62 144.64-1.07 143.25-1.76L143.25-1.76 143.2-33.2Q144.57-33.76 146.11-34.22 147.64-34.67 149.24-34.97 150.84-35.28 152.43-35.44 154.02-35.6 155.51-35.6L155.51-35.6Q157.24-35.6 159.01-35.38 160.78-35.16 162.41-34.64 164.05-34.13 165.47-33.31 166.88-32.5 167.94-31.3 169.01-30.1 169.6-28.52 170.2-26.93 170.2-24.85L170.2-24.85Q170.2-23.49 169.81-22.29 169.42-21.09 168.69-20.14 167.96-19.19 166.91-18.52 165.86-17.85 164.54-17.53L164.54-17.53Q166.13-17.11 167.43-16.31 168.74-15.5 169.65-14.36 170.57-13.21 171.07-11.77 171.57-10.33 171.57-8.69ZM159.17-22.61L159.17-22.61Q159.17-23.32 158.87-23.82 158.58-24.32 158.15-24.63 157.73-24.95 157.23-25.1 156.73-25.24 156.34-25.24L156.34-25.24Q155.85-25.24 155.38-25.1 154.92-24.95 154.48-24.76L154.48-24.76 154.33-19.34Q154.89-19.34 155.72-19.43 156.55-19.53 157.32-19.86 158.09-20.19 158.63-20.84 159.17-21.48 159.17-22.61ZM155.7-14.65L155.7-14.65Q154.99-14.65 154.33-14.5L154.33-14.5 154.24-8.94Q154.6-8.86 154.96-8.8 155.31-8.74 155.65-8.74L155.65-8.74Q156.16-8.74 156.77-8.85 157.38-8.96 157.92-9.29 158.46-9.62 158.81-10.18 159.17-10.74 159.17-11.67L159.17-11.67Q159.17-12.6 158.81-13.18 158.46-13.77 157.95-14.1 157.43-14.43 156.82-14.54 156.21-14.65 155.7-14.65ZM173.06-33.69L186.04-34.38 183.36-1.12 173.06-0.59 173.06-33.69ZM186.92-34.86L213.53-34.91 213.29-24.56 206.01-24.27 204.16-1.12 193.85-0.59 193.9-23.73 186.63-23.34 186.92-34.86ZM215.48-35.21L237.99-35.21Q237.85-32.91 237.72-30.66 237.6-28.42 237.41-26.12L237.41-26.12 227.06-25.59 226.81-22.51 234.09-22.51 233.55-14.94 226.23-14.7 225.98-11.13 232.04-11.13 236.33-11.13Q236.19-8.45 236.03-5.8 235.87-3.15 235.75-0.49L235.75-0.49 214.7 0 215.48-35.21Z" fill="white"></path></g></svg></g></svg></g></svg></g></svg></g><g><svg viewBox="0 0 82.64825262686412 97.98203569721503" height="97.98203569721503" width="82.64825262686412"><g><svg xmlns="http://www.w3.org/2000/svg" xmlns:xlink="http://www.w3.org/1999/xlink" version="1.1" x="0" y="0" viewBox="3.872 0.5338863270091985 41.222986645054384 48.8711136729908" enable-background="new 0 0 50 50" xml:space="preserve" height="97.98203569721503" width="82.64825262686412" class="icon-icon-0" data-fill-palette-color="accent" id="SvgjsSvg1383"></svg></g></svg></g></svg></g><defs><mask></mask></defs></svg></g></mask><linearGradient x1="0" x2="1" y1="0.5" y2="0.5" id="5179139b-cd32-401f-bc7e-7463cadcfa2c"><stop stop-color="#fff72e" offset="0"></stop><stop stop-color="#deae29" offset="1"></stop></linearGradient><rect width="395.52" height="78.73523743734533" fill="url(#5179139b-cd32-401f-bc7e-7463cadcfa2c)" mask="url(#4949850e-2605-4fdd-afc2-71b3664f7959)" data-fill-palette-color="primary"></rect><mask id="e43fac20-30aa-41b1-b76a-36dc5e675fa2"><g id="SvgjsG1397"><svg viewBox="0 0 395.52 78.73523743734533" height="78.73523743734533" width="395.52"><g><svg viewBox="0 0 492.2047106265655 97.98203569721503" height="78.73523743734533" width="395.52"><g transform="matrix(1,0,0,1,96.68471062656549,13.541656163652732)"><svg viewBox="0 0 395.52 70.89872336990956" height="70.89872336990956" width="395.52"><g id="SvgjsG1396"><svg viewBox="0 0 395.52 70.89872336990956" height="70.89872336990956" width="395.52" id="SvgjsSvg1395"><g><svg viewBox="0 0 395.52 70.89872336990956" height="70.89872336990956" width="395.52"><g transform="matrix(1,0,0,1,0,0)"><svg width="395.52" viewBox="-3.66 -39.79 245.65 44.38" height="70.89872336990956" data-palette-color="url(#5179139b-cd32-401f-bc7e-7463cadcfa2c)"><g class="wordmark-text-0" data-fill-palette-color="primary" id="SvgjsG1394"></g></svg></g></svg></g></svg></g></svg></g><g><svg viewBox="0 0 82.64825262686412 97.98203569721503" height="97.98203569721503" width="82.64825262686412"><g><svg xmlns="http://www.w3.org/2000/svg" xmlns:xlink="http://www.w3.org/1999/xlink" version="1.1" x="0" y="0" viewBox="3.872 0.5338863270091985 41.222986645054384 48.8711136729908" enable-background="new 0 0 50 50" xml:space="preserve" height="97.98203569721503" width="82.64825262686412" class="icon-icon-0" data-fill-palette-color="accent" id="SvgjsSvg1393"><g fill="white"><path fill="white" d="M19.906 20.441c0-1.826-1.485-3.312-3.311-3.312-1.827 0-3.311 1.486-3.311 3.312s1.484 3.311 3.311 3.311C18.42 23.752 19.906 22.267 19.906 20.441zM16.595 21.399c-0.53 0-0.959-0.432-0.959-0.959 0-0.528 0.429-0.96 0.959-0.96 0.528 0 0.96 0.432 0.96 0.96C17.555 20.967 17.123 21.399 16.595 21.399z"></path><path fill="white" d="M27.846 13.436c-3.022 0-5.478 2.459-5.478 5.478 0 3.022 2.456 5.479 5.478 5.479 3.021 0 5.478-2.457 5.478-5.479C33.323 15.896 30.865 13.436 27.846 13.436zM27.846 22.042c-1.724 0-3.127-1.403-3.127-3.127 0-1.722 1.404-3.126 3.127-3.126 1.722 0 3.128 1.405 3.128 3.126C30.974 20.639 29.567 22.042 27.846 22.042z"></path><path fill="white" d="M22.462 26.136c-2.333 0-4.228 1.896-4.228 4.229 0 2.332 1.897 4.227 4.228 4.227 2.33 0 4.228-1.896 4.228-4.227C26.689 28.034 24.792 26.136 22.462 26.136zM22.462 32.244c-1.036 0-1.876-0.841-1.876-1.877 0-1.033 0.84-1.878 1.876-1.878 1.033 0 1.875 0.842 1.875 1.878C24.337 31.405 23.495 32.244 22.462 32.244z"></path><path fill="white" d="M37.274 4.875c-4.559-3.498-10.63-5.017-16.31-4.06C15.452 1.733 10.437 4.895 7.201 9.487c-1.541 2.186-2.672 4.709-3.273 7.301L3.872 17.02l0.042 0.234c0.179 1.024 1 2.078 1.724 3.005 0.255 0.326 0.492 0.625 0.652 0.877l18.075 28.269 5.375-8.209c0.179-0.253 0.508-0.725 0.319-1.352-0.198-0.659-0.789-0.891-1.222-1.063-1.165-0.458-0.685-2.102-0.59-2.416l0.057-0.353c0.016-0.28 0.215-2.74 2.146-2.74 0.462 0 1.008 0.119 1.62 0.358l2.904 1.127-1.436-2.766c-0.384-0.739-0.412-1.577-0.077-2.362 0.371-0.878 1.151-1.567 2.057-1.838 0.068-0.013 0.155-0.013 0.252-0.013 0.23 0.006 0.474 0.01 0.727 0.022 0.278 0.014 0.556 0.027 0.794 0.027 0.398 0 1.231 0 1.744-0.78l5.693-8.666c0.932-1.408 0-3.715-1.794-6.937C41.537 8.917 39.58 6.644 37.274 4.875zM37.255 25.483c-0.194 0-0.421-0.01-0.642-0.023-0.723-0.034-1.338-0.041-1.734 0.076-1.624 0.484-2.93 1.642-3.582 3.179-0.304 0.719-0.441 1.479-0.411 2.229-3.672-0.309-4.845 3.17-4.907 4.826-0.402 1.225-0.567 3.651 1.32 4.86l-2.911 4.451L10.21 22.905C10.774 15.367 17.026 9.51 24.613 9.51c7.589 0 13.845 5.857 14.385 13.325L37.255 25.483zM42.766 17.096l-1.857 2.827C39.105 12.559 32.47 7.156 24.61 7.156c-7.836 0-14.462 5.375-16.304 12.778l-0.037-0.06c-0.193-0.301-0.473-0.666-0.779-1.057-0.39-0.498-1.008-1.295-1.206-1.782 0.549-2.197 1.527-4.333 2.838-6.192 2.875-4.085 7.332-6.894 12.227-7.71 5.046-0.848 10.443 0.5 14.493 3.607 2.051 1.573 3.789 3.596 5.146 6.052C42.772 15.996 42.804 16.912 42.766 17.096z"></path></g></svg></g></svg></g></svg></g><defs><mask></mask></defs><mask><g id="SvgjsG1392"><svg viewBox="0 0 395.52 78.73523743734533" height="78.73523743734533" width="395.52"><g><svg viewBox="0 0 492.2047106265655 97.98203569721503" height="78.73523743734533" width="395.52"><g transform="matrix(1,0,0,1,96.68471062656549,13.541656163652732)"><svg viewBox="0 0 395.52 70.89872336990956" height="70.89872336990956" width="395.52"><g id="SvgjsG1391"><svg viewBox="0 0 395.52 70.89872336990956" height="70.89872336990956" width="395.52" id="SvgjsSvg1390"><g><svg viewBox="0 0 395.52 70.89872336990956" height="70.89872336990956" width="395.52"><g transform="matrix(1,0,0,1,0,0)"><svg width="395.52" viewBox="-3.66 -39.79 245.65 44.38" height="70.89872336990956" data-palette-color="url(#5179139b-cd32-401f-bc7e-7463cadcfa2c)"><g class="wordmark-text-0" data-fill-palette-color="primary" id="SvgjsG1389"></g></svg></g></svg></g></svg></g></svg></g><g><svg viewBox="0 0 82.64825262686412 97.98203569721503" height="97.98203569721503" width="82.64825262686412"><g><svg xmlns="http://www.w3.org/2000/svg" xmlns:xlink="http://www.w3.org/1999/xlink" version="1.1" x="0" y="0" viewBox="3.872 0.5338863270091985 41.222986645054384 48.8711136729908" enable-background="new 0 0 50 50" xml:space="preserve" height="97.98203569721503" width="82.64825262686412" class="icon-icon-0" data-fill-palette-color="accent" id="SvgjsSvg1388"></svg></g></svg></g></svg></g><defs><mask></mask></defs></svg></g></mask></svg></g></mask><linearGradient x1="0" x2="1" y1="0.5" y2="0.5" id="cd393374-9e98-4d0e-89f5-a43dadfe1f57"><stop stop-color="#ffa62e" offset="0"></stop><stop stop-color="#f71b3d" offset="1"></stop></linearGradient><rect width="395.52" height="78.73523743734533" fill="url(#cd393374-9e98-4d0e-89f5-a43dadfe1f57)" mask="url(#e43fac20-30aa-41b1-b76a-36dc5e675fa2)" data-fill-palette-color="accent"></rect></svg><rect width="395.52" height="78.73523743734533" fill="none" stroke="none" visibility="hidden"></rect></g></svg></g></svg>