<svg class="animated" id="freepik_stories-take-away" xmlns="http://www.w3.org/2000/svg" viewBox="0 0 500 500" version="1.1" xmlns:xlink="http://www.w3.org/1999/xlink" xmlns:svgjs="http://svgjs.com/svgjs"><style>svg#freepik_stories-take-away:not(.animated) .animable {opacity: 0;}svg#freepik_stories-take-away.animated #freepik--Shape--inject-32 {animation: 1s 1 forwards cubic-bezier(.36,-0.01,.5,1.38) fadeIn;animation-delay: 0s;}svg#freepik_stories-take-away.animated #freepik--Route--inject-32 {animation: 1s 1 forwards cubic-bezier(.36,-0.01,.5,1.38) lightSpeedRight;animation-delay: 0s;}svg#freepik_stories-take-away.animated #freepik--Character--inject-32 {animation: 1s 1 forwards cubic-bezier(.36,-0.01,.5,1.38) lightSpeedLeft;animation-delay: 0s;}svg#freepik_stories-take-away.animated #freepik--speed-line--inject-32 {animation: 1s 1 forwards cubic-bezier(.36,-0.01,.5,1.38) slideUp;animation-delay: 0s;}            @keyframes fadeIn {                0% {                    opacity: 0;                }                100% {                    opacity: 1;                }            }                    @keyframes lightSpeedRight {              from {                transform: translate3d(50%, 0, 0) skewX(-20deg);                opacity: 0;              }              60% {                transform: skewX(10deg);                opacity: 1;              }              80% {                transform: skewX(-2deg);              }              to {                opacity: 1;                transform: translate3d(0, 0, 0);              }            }                    @keyframes lightSpeedLeft {              from {                transform: translate3d(-50%, 0, 0) skewX(20deg);                opacity: 0;              }              60% {                transform: skewX(-10deg);                opacity: 1;              }              80% {                transform: skewX(2deg);              }              to {                opacity: 1;                transform: translate3d(0, 0, 0);              }            }                    @keyframes slideUp {                0% {                    opacity: 0;                    transform: translateY(30px);                }                100% {                    opacity: 1;                    transform: inherit;                }            }        </style><g id="freepik--Shape--inject-32" class="animable" style="transform-origin: 250px 416.24px;"><ellipse id="freepik--shape--inject-32" cx="250" cy="416.24" rx="193.89" ry="11.32" style="fill: rgb(245, 245, 245); transform-origin: 250px 416.24px;" class="animable"></ellipse></g><g id="freepik--Route--inject-32" class="animable" style="transform-origin: 78.985px 416.24px;"><line x1="139.73" y1="416.24" x2="135.73" y2="416.24" style="fill: none; stroke: rgb(255, 183, 64); stroke-linecap: round; stroke-linejoin: round; transform-origin: 137.73px 416.24px;" id="elawx3w0xvddf" class="animable"></line><line x1="128.17" y1="416.24" x2="26.02" y2="416.24" style="fill: none; stroke: rgb(255, 183, 64); stroke-linecap: round; stroke-linejoin: round; stroke-dasharray: 7.56611, 7.56611; transform-origin: 77.095px 416.24px;" id="elg7jguswnpg" class="animable"></line><line x1="22.24" y1="416.24" x2="18.24" y2="416.24" style="fill: none; stroke: rgb(255, 183, 64); stroke-linecap: round; stroke-linejoin: round; transform-origin: 20.24px 416.24px;" id="elfv02b6ff1dc" class="animable"></line></g><g id="freepik--Character--inject-32" class="animable" style="transform-origin: 249.979px 270.292px;"><g id="el1p2poremwfz"><rect x="263.05" y="177.83" width="115.4" height="83.31" style="fill: rgb(255, 183, 64); transform-origin: 320.75px 219.485px; transform: rotate(-0.95deg);" class="animable"></rect></g><g id="el1yy1zrjywvo"><rect x="262.94" y="178.2" width="69.77" height="83.31" style="fill: rgb(255, 255, 255); opacity: 0.3; transform-origin: 297.825px 219.855px; transform: rotate(-0.95deg);" class="animable"></rect></g><g id="el9323x7y2ng7"><rect x="321.81" y="184.55" width="20.09" height="5.6" style="fill: rgb(255, 255, 255); opacity: 0.3; transform-origin: 331.855px 187.35px; transform: rotate(-1.14576deg);" class="animable"></rect></g><g id="ela0n0risouvo"><rect x="323.08" y="248.18" width="20.09" height="5.6" style="fill: rgb(255, 255, 255); opacity: 0.3; transform-origin: 333.125px 250.98px; transform: rotate(-0.95deg);" class="animable"></rect></g><ellipse cx="356.52" cy="216.85" rx="11.79" ry="13.34" style="fill: none; stroke: rgb(255, 255, 255); stroke-miterlimit: 10; transform-origin: 356.52px 216.85px;" id="elkzmqucuu14i" class="animable"></ellipse><line x1="357.01" y1="205.54" x2="357.01" y2="207.78" style="fill: none; stroke: rgb(255, 255, 255); stroke-linecap: round; stroke-linejoin: round; transform-origin: 357.01px 206.66px;" id="elicbqohb8cl" class="animable"></line><line x1="357.52" y1="226.06" x2="357.52" y2="228.3" style="fill: none; stroke: rgb(255, 255, 255); stroke-linecap: round; stroke-linejoin: round; transform-origin: 357.52px 227.18px;" id="elx28ksvjrlv" class="animable"></line><line x1="346.58" y1="216.41" x2="348.83" y2="216.41" style="fill: none; stroke: rgb(255, 255, 255); stroke-linecap: round; stroke-linejoin: round; transform-origin: 347.705px 216.41px;" id="elmt1iaro1od8" class="animable"></line><line x1="364.64" y1="216.42" x2="366.89" y2="216.42" style="fill: none; stroke: rgb(255, 255, 255); stroke-linecap: round; stroke-linejoin: round; transform-origin: 365.765px 216.42px;" id="elo9mfkukqms9" class="animable"></line><line x1="357" y1="216.41" x2="357.01" y2="209.51" style="fill: none; stroke: rgb(255, 255, 255); stroke-linecap: round; stroke-linejoin: round; stroke-width: 0.5px; transform-origin: 357.005px 212.96px;" id="eli1ja5mlpeb" class="animable"></line><line x1="357.44" y1="216.86" x2="362.32" y2="221.74" style="fill: none; stroke: rgb(255, 255, 255); stroke-linecap: round; stroke-linejoin: round; stroke-width: 0.5px; transform-origin: 359.88px 219.3px;" id="ellgyqlt5jpks" class="animable"></line><path d="M358.09,216.42a1.09,1.09,0,1,1-1.09-1.09A1.08,1.08,0,0,1,358.09,216.42Z" style="fill: rgb(255, 255, 255); transform-origin: 357px 216.42px;" id="eltiuqk6o4oot" class="animable"></path><g id="elrdqtsu7b44"><ellipse cx="356.52" cy="216.85" rx="15.61" ry="16.87" style="fill: rgb(255, 255, 255); opacity: 0.3; transform-origin: 356.52px 216.85px;" class="animable"></ellipse></g><path d="M226.88,363.15c1.74,1.33,36.67-2.43,27.64-64.4,0,0,16.57,4.21,18.35,3.93,0,0,24.31,37.27,6.61,55.73S235.4,378,235.4,378Z" style="fill: rgb(255, 183, 64); transform-origin: 256.408px 338.375px;" id="el2ti0ddiu0x7" class="animable"></path><g id="elgdns1tpfy5"><path d="M226.88,363.15c1.74,1.33,36.67-2.43,27.64-64.4,0,0,16.57,4.21,18.35,3.93,0,0,24.31,37.27,6.61,55.73S235.4,378,235.4,378Z" style="opacity: 0.3; transform-origin: 256.408px 338.375px;" class="animable"></path></g><path d="M265.59,308.34c.09,0-9.76.19-13.06-3.91S247,293,253,288s41.23-26.6,57.82-28.3,34.35,9,34.35,9l-21.72,16.06-46.77,11.32Z" style="fill: rgb(38, 50, 56); transform-origin: 297.209px 283.929px;" id="el3orhrczmf93" class="animable"></path><polygon points="233.74 353.39 234.65 362.35 245.41 361.44 243.79 352.23 233.74 353.39" style="fill: rgb(255, 195, 189); transform-origin: 239.575px 357.29px;" id="eltmx8aris14b" class="animable"></polygon><path d="M231.65,361.7l15.61-.22,1.11,7.88s-14.62.2-20.63-.6-5.07-3.93-5.07-3.93S229.71,365,231.65,361.7Z" style="fill: rgb(38, 50, 56); transform-origin: 235.493px 365.431px;" id="elcy9gnz3i4l" class="animable"></path><g id="el1fq7psg7a6g"><ellipse cx="332.76" cy="380.8" rx="41.69" ry="35.29" style="fill: rgb(38, 50, 56); transform-origin: 332.76px 380.8px; transform: rotate(-84.19deg);" class="animable"></ellipse></g><path d="M308.24,253.29s1.62,37.17-20,38.23-44.85-1.31-44.85-1.31L250.2,357l-20.27,1.25s-14.55-56.66-16.84-70.9-.3-24.31,14.73-30.63S308.24,253.29,308.24,253.29Z" style="fill: rgb(255, 183, 64); transform-origin: 260.28px 305.44px;" id="elje3asmmxgej" class="animable"></path><path d="M187.25,371.22,214.18,293l36-39.74s-31.42.12-46.52,8.8S188,281.17,185.23,293.58s-13.88,71.15-13.88,71.15Z" style="fill: rgb(255, 183, 64); transform-origin: 210.765px 312.24px;" id="elqi0xdjm3b9p" class="animable"></path><g id="elqobku35n8e8"><path d="M308.24,253.29s-33.46-1.49-58,0h0s-31.42.12-46.52,8.8S188,281.17,185.23,293.58s-13.88,71.15-13.88,71.15l15.9,6.49L214.18,293h0c4.53,21.68,15.75,65.21,15.75,65.21L250.2,357l-6.82-66.75s23.22,2.37,44.85,1.31S308.24,253.29,308.24,253.29Z" style="opacity: 0.7; transform-origin: 239.809px 311.924px;" class="animable"></path></g><path d="M253,193l-12.43,1.51s-2.16,22.85-4.17,27.29c0,0-38.23,5.25-53.89,4.8l-7.95,5.4-.28,9.39,7.79.23,2.51-5.95s5.26-.23,6.48-3.19c0,0,40.62,9.81,55.58-1.39C246.66,231.1,255.68,217.85,253,193Z" style="fill: rgb(255, 195, 189); transform-origin: 213.889px 217.31px;" id="elbgij1plflh" class="animable"></path><path d="M288.62,131.81s3.89,5,2.41,9.33a7.57,7.57,0,0,1-5.49,5s-.73,6.93-4.82,7.13S278,138,278,138Z" style="fill: rgb(38, 50, 56); transform-origin: 284.573px 142.541px;" id="elvkjrqhmezgb" class="animable"></path><path d="M257.13,253.46l-2.73-44.67-16.94-11.26S243,178,253.6,174.69s33.72-10.9,47.74-7.13,12.41,20.31,10,32.58l-2.7.64s-.42,48.35-.44,52.51Z" style="fill: rgb(38, 50, 56); transform-origin: 275.2px 209.997px;" id="elkixcxnvlewm" class="animable"></path><path d="M287.61,170.32c-5.55,5.37-16.87,8.57-20,5.9s.82-5.12,3.76-8.14c1.59-1.66,1.54-4.77,1.17-7.25a25.53,25.53,0,0,0-.86-3.69c-10.39-.57-14.7-5.43-15.13-14S260,124.62,260,124.62l7.34-6.26s10,1.5,18,7c4.76,3.24,3.35,9.62,1.38,14.33a38.31,38.31,0,0,1-3,5.77C282.6,157.19,287.61,170.32,287.61,170.32Z" style="fill: rgb(255, 195, 189); transform-origin: 272.535px 147.77px;" id="elnnhltcuyn5" class="animable"></path><path d="M262.33,145.5s4,.19,5.75-2.29" style="fill: none; stroke: rgb(38, 50, 56); stroke-linecap: round; stroke-linejoin: round; transform-origin: 265.205px 144.357px;" id="elc6b2knbouyr" class="animable"></path><path d="M268.7,135.38c0,.76-.46,1.36-1,1.35s-.93-.64-.91-1.4.46-1.36,1-1.35S268.73,134.62,268.7,135.38Z" style="fill: rgb(38, 50, 56); transform-origin: 267.745px 135.355px;" id="eld01jofuvuv" class="animable"></path><path d="M259.58,135.62c0,.76-.46,1.36-1,1.35s-.93-.64-.91-1.4.46-1.36,1-1.35S259.61,134.87,259.58,135.62Z" style="fill: rgb(38, 50, 56); transform-origin: 258.625px 135.595px;" id="elzphi0vuxtih" class="animable"></path><path d="M262.75,141.83l-.41-6.13-2.93,5.82A2.92,2.92,0,0,0,262.75,141.83Z" style="fill: rgb(237, 132, 126); transform-origin: 261.08px 138.957px;" id="eljf7vi2gcmad" class="animable"></path><path d="M268.22,130.58a3.36,3.36,0,0,1,3.94,1.83" style="fill: none; stroke: rgb(38, 50, 56); stroke-linecap: round; stroke-linejoin: round; transform-origin: 270.19px 131.435px;" id="elz4qeeocaibr" class="animable"></path><path d="M256.76,131.71s1.84-2,4-1.49" style="fill: none; stroke: rgb(38, 50, 56); stroke-linecap: round; stroke-linejoin: round; transform-origin: 258.76px 130.923px;" id="elh2mwn0z0xjd" class="animable"></path><path d="M286.79,139.69h0c-11.44.41-12.86-12.56-12.86-12.56-5.66,3-13.89-2.5-13.89-2.5l7.34-6.28s10,1.52,18,7C290.17,128.6,288.76,135,286.79,139.69Z" style="fill: rgb(38, 50, 56); transform-origin: 274.33px 129.025px;" id="elgjv0kumt60g" class="animable"></path><path d="M256.36,128.43s-5.92-3.94-3.31-6.78,18.6,2.56,30.55,9.18c0,0-27.37-18.31-34.81-12.52-6.15,4.79,7.49,11.44,7.08,11.43Z" style="fill: rgb(255, 183, 64); transform-origin: 265.397px 124.004px;" id="elcqq1722y8ck" class="animable"></path><path d="M289.75,127.09a17.13,17.13,0,0,1-1.16,6.06l-26.88-13a14.3,14.3,0,0,1,3.94-3.18,16.7,16.7,0,0,1,5.12-1.9,18.84,18.84,0,0,1,5.79-.2C286.39,116,289.8,123.56,289.75,127.09Z" style="fill: rgb(255, 183, 64); transform-origin: 275.73px 123.942px;" id="eluz85qy7w1n" class="animable"></path><path d="M228,246.66c-1.75,1.83-24.38-2.86-28.33-.76-1.67.88-2.4,4-4.08,7.42h0c-2.29,4.65-6.36,9.75-17,10.09-18.48.59-16.25-18.16-17.71-24.25,0,0-17.5-3.19-18.42-6.26s.21-3.53.21-3.53,21.59,4,25.77-1.46a9.16,9.16,0,0,1,2.8-1.87,0,0,0,0,0,0,0,20.32,20.32,0,0,1,7.6-1.71c7.61-.4,16.89,1.74,19.49,6.56,5.28,9.83,27.92,7.62,30,10.2S229.75,244.83,228,246.66Z" style="fill: rgb(255, 183, 64); transform-origin: 185.862px 243.853px;" id="elzhd69a3k1n" class="animable"></path><path d="M170.71,259.47s-30.36,42-5.36,106.65" style="fill: none; stroke: rgb(38, 50, 56); stroke-linecap: round; stroke-linejoin: round; transform-origin: 163.093px 312.795px;" id="el2u4yqlc6sq2" class="animable"></path><path d="M210.78,281.29h0s0,.08,0,.24,0,.25,0,.43v.1a80,80,0,0,1-2,12c-1.38,5.83-3.21,11.38-4.72,15.84-6.4,18.95-5.66,39.37-5.66,39.37-2.12-2.64-6-4.52-10.85-5.84-17.66-4.85-47.64-2.25-47.64-2.25-5.88-20.63-3.78-52.92,2.07-71s22.07-14,22.07-14,17.12.5,19.27.27a42.1,42.1,0,0,1,11.83.24C208.37,259.11,211.55,269.56,210.78,281.29Z" style="fill: rgb(255, 183, 64); transform-origin: 173.649px 302.528px;" id="eljuoyhpq11hg" class="animable"></path><path d="M342.59,360c-30,27.08-87.91,29.92-131,26.92l-24.14-43.43-9.78-17.59,31.42-42.35,1.66-2.23s0,.08,0,.24,0,.25,0,.43v.1c-.43,7.55-3.21,68.14,19,83l.18.13A19.26,19.26,0,0,0,240,368.3c40.75,1.18,39.61-52,29.25-63.39l70.71-14.21S353.92,325.85,342.59,360Z" style="fill: rgb(255, 183, 64); transform-origin: 262.347px 334.596px;" id="elcgibca66qf7" class="animable"></path><path d="M263.94,293.38s-6.63,5.5-3.21,12.88,36.39-6.95,49.37-9.56,28-5.16,34.46-6.49,5.9-19.86.62-21.5-57,7.5-65.58,12.52A87.06,87.06,0,0,0,263.94,293.38Z" style="fill: rgb(38, 50, 56); transform-origin: 304.511px 288.433px;" id="elxizgj45q0vi" class="animable"></path><path d="M280.54,144.27a4.1,4.1,0,0,1-.39-5.09c1.6-2.4,4.83-6.21,7.93-3.36,4.34,4-3.07,11.27-6.14,9.51A6.25,6.25,0,0,1,280.54,144.27Z" style="fill: rgb(255, 195, 189); transform-origin: 284.427px 140.203px;" id="elxedsffu54l" class="animable"></path><g id="el5897lxkrfhy"><path d="M256.36,128.43s-5.92-3.94-3.31-6.78c1.16-1.26,4.63-1,9.32.34a65.7,65.7,0,0,1,8.84,3.07c4.12,1.79,8.5,4.08,12.39,5.77,0,0-27.37-18.31-34.81-12.52-6.15,4.79,6.64,11,7.09,11.42l.22-.81Z" style="opacity: 0.2; transform-origin: 265.36px 124.004px;" class="animable"></path></g><path d="M259.17,126.72s-6,1-1.86,7.46Z" style="fill: rgb(38, 50, 56); transform-origin: 257.512px 130.45px;" id="elon6834eubh" class="animable"></path><path d="M264.92,122.78s-9.05-3.18-11.57-1.38.12,5.23,3,7l2.31.3,1.36-4.1,3.52-.43Z" style="fill: rgb(38, 50, 56); transform-origin: 258.629px 124.774px;" id="elgnnqc3jmcbi" class="animable"></path><g id="elk669qivozl"><path d="M277.25,117.89l-2.17,3.21L265.65,117a16.7,16.7,0,0,1,5.12-1.9Z" style="fill: rgb(255, 255, 255); opacity: 0.3; transform-origin: 271.45px 118.1px;" class="animable"></path></g><g id="elu4w4usi7c9"><path d="M275.15,156.26a16,16,0,0,1-2.65,4.57,25.53,25.53,0,0,0-.86-3.69A10.34,10.34,0,0,0,275.15,156.26Z" style="opacity: 0.1; transform-origin: 273.395px 158.545px;" class="animable"></path></g><path d="M185.5,244.2c-.4,6.93-3.4,12.6-7.08,14h0a4.77,4.77,0,0,1-2,.31c-4.54-.26-7.84-7.07-7.38-15.2s4.52-14.51,9.06-14.25c1.85.1,3.48,1.29,4.75,3.2h0C184.72,235,185.77,239.38,185.5,244.2Z" style="fill: rgb(245, 245, 245); transform-origin: 177.27px 243.785px;" id="elvujfvjulglf" class="animable"></path><path d="M185.5,244.2c-.4,6.93-3.4,12.6-7.08,14h0c-4.2-.24-7.25-6.53-6.82-14s4.17-13.4,8.37-13.16a4.87,4.87,0,0,1,2.91,1.25h0C184.72,235,185.77,239.38,185.5,244.2Z" style="fill: rgb(255, 255, 255); transform-origin: 178.551px 244.616px;" id="elhxe68yvlxy5" class="animable"></path><path d="M347.57,342.43c-7.73-5.43-37.64-10.76-37.64-10.76-18.17,0-34.12,16.35-36.32,38.06-1.8,17.66,6,33.69,18.57,41,0,0,1.05.44,2.81,1.13,6.66,2.63,23.56,9,33.55,10.4" style="fill: rgb(38, 50, 56); transform-origin: 310.461px 376.965px;" id="elog3hatfpfu" class="animable"></path><g id="elud0k3gay5q"><ellipse cx="332.76" cy="380.8" rx="41.69" ry="35.29" style="opacity: 0.3; transform-origin: 332.76px 380.8px; transform: rotate(-84.19deg);" class="animable"></ellipse></g><g id="elquygs6zuxyd"><ellipse cx="177.31" cy="379.47" rx="41.69" ry="35.29" style="fill: rgb(38, 50, 56); transform-origin: 177.31px 379.47px; transform: rotate(-84.19deg);" class="animable"></ellipse></g><path d="M198.88,345.64,181,420.71a30.1,30.1,0,0,1-7.89.23l-.2,0c-3.43-.88-1.9.07-5.34-1.07-8.75-2.89-21.46-8-21.46-8-13.47-6.55-21.08-22.48-19.23-40.68,2.24-22.05,18.06-38.52,36.68-37.17,0,0,8.84,1.63,17.94,4,4,1,8,2.19,11.29,3.43h0A33.52,33.52,0,0,1,198.88,345.64Z" style="fill: rgb(38, 50, 56); transform-origin: 162.743px 377.52px;" id="elpjxw9zsqek" class="animable"></path><g id="el3qrw7t22qm"><path d="M212.42,383c-2,19.75-15.37,35.08-31.44,37.67a30.1,30.1,0,0,1-7.89.23l-.2,0a30.24,30.24,0,0,1-10.5-3.13c-13.51-6.85-22.06-23.49-20.19-41.89,2.33-22.89,19.9-39.84,39.28-37.9h.05a30.24,30.24,0,0,1,11.24,3.43h0a33.52,33.52,0,0,1,6.09,4.2C208.43,353.93,214,367.89,212.42,383Z" style="opacity: 0.3; transform-origin: 177.315px 379.443px;" class="animable"></path></g><path d="M207.55,356.7a18.33,18.33,0,0,0-2-2.63c-4.47-6.1-14.69-8.38-21.38-7.84a31.12,31.12,0,0,0-14.33,5.14c-4.88,3.16-8.37,8-13.21,11.32-9.18,6.34-23.11,6.16-32.33-.37a14.21,14.21,0,0,1-1.48-1.21,6.82,6.82,0,0,1-1.8-3.55,9,9,0,0,1,.37-5c2-5.62,8.67-10.56,12.88-13.57a56.43,56.43,0,0,1,29-10.21C193,326.73,205.68,352.12,207.55,356.7Z" style="fill: rgb(255, 183, 64); transform-origin: 164.188px 347.998px;" id="elnx20u1dadro" class="animable"></path><g id="elgzbiqnfrsk"><path d="M205.49,357.5c-6.39-9.22-14.59-11.81-21.28-11.27a31.12,31.12,0,0,0-14.33,5.14c-4.88,3.16-8.37,8-13.21,11.32-9.18,6.34-23.11,6.16-32.33-.37a14.21,14.21,0,0,1-1.48-1.21,6.82,6.82,0,0,1-1.8-3.55,9,9,0,0,1,.37-5c3.09,3.57,12.09,12.17,24.28,8,15.2-5.25,18.91-20.85,35.16-20.71C193.78,340,201.73,350,205.49,357.5Z" style="opacity: 0.3; transform-origin: 163.178px 353.591px;" class="animable"></path></g><g id="el5491x26jw1u"><g style="opacity: 0.3; transform-origin: 168.255px 334.253px;" class="animable"><path d="M138.62,336.24A42.29,42.29,0,0,1,153,329.65a47.71,47.71,0,0,1,15.84-1.3,52.12,52.12,0,0,1,15.41,3.92l1.82.8,1.78.89c1.2.56,2.33,1.26,3.49,1.9s2.23,1.43,3.34,2.14,2.15,1.54,3.21,2.33A75.12,75.12,0,0,0,184,333a53.29,53.29,0,0,0-15.21-3.63,49.13,49.13,0,0,0-15.57,1,48.29,48.29,0,0,0-7.51,2.32A41.05,41.05,0,0,0,138.62,336.24Z" id="eln6sz1v7yk4e" class="animable" style="transform-origin: 168.255px 334.253px;"></path></g></g><g id="el9vuawdgvcz"><g style="opacity: 0.3; transform-origin: 169.712px 303.23px;" class="animable"><path d="M171,329.09a55.12,55.12,0,0,1-2.23-12.82c-.33-4.33-.4-8.68-.31-13s.39-8.68.79-13l.73-6.46c.32-2.15.6-4.3,1-6.44l-.91,13-.36,6.48c-.06,2.16-.19,4.32-.2,6.48-.17,4.32-.09,8.64.07,13,.07,2.16.24,4.31.46,6.46A46.54,46.54,0,0,0,171,329.09Z" id="eli2fou5pr0vb" class="animable" style="transform-origin: 169.712px 303.23px;"></path></g></g><g id="el51afz5n5bv2"><path d="M229.7,365c-20.88-13.43-21.71-48.08-21-70.94.13-3.93.29-7.5.41-10.57a64.89,64.89,0,0,0,0-9.23C207,258.56,195,256.67,195,256.67h.05c13.29,2.44,16.47,12.89,15.7,24.62h0s0,.08,0,.24,0,.25,0,.43v.1C210.3,289.61,207.52,350.2,229.7,365Z" style="opacity: 0.3; transform-origin: 212.35px 310.835px;" class="animable"></path></g><g id="el5laur23f89"><path d="M228,246.66c-1.75,1.83-24.38-2.86-28.33-.76-1.67.88-2.4,4-4.08,7.42h0a0,0,0,0,0,0,0c-4.72,7.5-11.36,8.68-11.77,8.74,7.92-6,10.13-20.44,6.2-29.57s-18-6.76-18.8-6.49a20.32,20.32,0,0,1,7.6-1.71c7.61-.4,16.89,1.74,19.49,6.56,5.28,9.83,27.92,7.62,30,10.2S229.75,244.83,228,246.66Z" style="opacity: 0.2; transform-origin: 200.416px 243.151px;" class="animable"></path></g><path d="M210.28,237.93a13.87,13.87,0,0,0-1.57,8.31l19.17,2.16a10.44,10.44,0,0,0,2.43-8.34S211.32,238.15,210.28,237.93Z" style="fill: rgb(38, 50, 56); transform-origin: 219.513px 243.165px;" id="elldquvqgws5" class="animable"></path><path d="M152.07,237.22s-1.91-4.06.38-6.63c-5.12-.46-8.29-1-11.59-1.48-.49,1.49-.73,2.92,1,5.19S152.07,237.22,152.07,237.22Z" style="fill: rgb(38, 50, 56); transform-origin: 146.476px 233.165px;" id="elff2c49lvecs" class="animable"></path><path d="M141.42,262.63c-3.32,5.41-6.16,14.07-6.41,27.9" style="fill: none; stroke: rgb(255, 183, 64); stroke-linecap: round; stroke-linejoin: round; transform-origin: 138.215px 276.58px;" id="el0xtj850d1uai" class="animable"></path><path d="M152.35,253.71a13.85,13.85,0,0,0-6.43,3.47" style="fill: none; stroke: rgb(255, 183, 64); stroke-linecap: round; stroke-linejoin: round; transform-origin: 149.135px 255.445px;" id="el6q6s2fa64gs" class="animable"></path><path d="M301.48,201.58l-12.62,1.54s-2.2,23.19-4.24,27.7c0,0-38.81,5.34-54.72,4.87l-8.07,5.48-.28,9.54,7.91.23,2.55-6s5.34-.23,6.57-3.24c0,0,41.24,10,56.43-1.4C295,240.26,304.17,226.81,301.48,201.58Z" style="fill: rgb(255, 195, 189); transform-origin: 261.762px 226.26px;" id="elyhxm53t7j" class="animable"></path><g id="el6tjkwg4og1c"><path d="M198.72,380c-.36,12.58-8.6,22.54-18.41,22.26a14,14,0,0,1-3.88-.67c-7.86-2.5-13.52-11.77-13.21-22.62.31-10.5,6.1-19.18,13.71-21.59a14.07,14.07,0,0,1,4.71-.67C191.45,357,199.09,367.46,198.72,380Z" style="fill: rgb(250, 250, 250); opacity: 0.2; transform-origin: 180.97px 379.485px;" class="animable"></path></g><path d="M189.69,380c-.31,10.74-6,19.57-13.26,21.62-7.86-2.5-13.52-11.77-13.21-22.62.31-10.5,6.1-19.18,13.71-21.59C184.49,359.46,190,368.88,189.69,380Z" style="fill: rgb(38, 50, 56); transform-origin: 176.455px 379.515px;" id="eld4ayasgwiun" class="animable"></path><g id="elgpxywdgmrrv"><path d="M352.8,381c-.37,12.58-8.61,22.55-18.41,22.26a13.61,13.61,0,0,1-3.88-.67c-7.87-2.5-13.53-11.76-13.21-22.62.3-10.49,6.09-19.18,13.7-21.59a14.07,14.07,0,0,1,4.71-.67C345.52,358,353.16,368.44,352.8,381Z" style="fill: rgb(250, 250, 250); opacity: 0.2; transform-origin: 335.05px 380.485px;" class="animable"></path></g><path d="M343.77,381c-.32,10.73-6,19.56-13.26,21.61-7.87-2.5-13.53-11.76-13.21-22.62.3-10.49,6.09-19.18,13.7-21.59C338.57,360.45,344.09,369.87,343.77,381Z" style="fill: rgb(38, 50, 56); transform-origin: 330.535px 380.505px;" id="elhznk5samzi" class="animable"></path><path d="M368.26,347.86c.17,12.37-18.66,20.56-50.17,25.72a79.49,79.49,0,0,1-25.7.3c-14-2.31-20.84-8.23-20.84-8.23s3.56-42.75,38.79-48.17c24-3.68,42.06,6,51.22,16.43C365.87,338.81,368.21,343.9,368.26,347.86Z" style="fill: rgb(255, 183, 64); transform-origin: 319.906px 345.732px;" id="elzvepoin7py" class="animable"></path><g id="el0tq6yh5u56wa"><path d="M368.26,347.86c.17,12.37-18.66,20.56-50.17,25.72a79.49,79.49,0,0,1-25.7.3c1.51-11.61,8.29-42.06,37.76-45.22,13.37-1.44,23.69,1.26,31.41,5.25C365.87,338.81,368.21,343.9,368.26,347.86Z" style="opacity: 0.3; transform-origin: 330.326px 351.524px;" class="animable"></path></g><g id="ellcdiuausga9"><g style="opacity: 0.3; transform-origin: 294.81px 341.2px;" class="animable"><path d="M273.59,365.84a68.86,68.86,0,0,1,4.13-17,61.52,61.52,0,0,1,8.44-15.44,46,46,0,0,1,6-6.47,38.25,38.25,0,0,1,7.17-5.16,41.75,41.75,0,0,1,16.7-5.21,50.75,50.75,0,0,0-8.46,2.18c-1.39.42-2.7,1.07-4,1.62a42.47,42.47,0,0,0-3.81,2.07c-1.26.72-2.42,1.59-3.61,2.4s-2.29,1.77-3.34,2.78A45.39,45.39,0,0,0,287,334a63.64,63.64,0,0,0-8.51,15.11,77.16,77.16,0,0,0-2.86,8.24A73.12,73.12,0,0,0,273.59,365.84Z" id="el8yl1gsluafo" class="animable" style="transform-origin: 294.81px 341.2px;"></path></g></g><polygon points="226.31 351.72 228.39 358.78 250.2 356.96 250.49 347.09 226.31 351.72" style="fill: rgb(255, 183, 64); transform-origin: 238.4px 352.935px;" id="elmd0kk31519i" class="animable"></polygon></g><g id="freepik--speed-line--inject-32" class="animable" style="transform-origin: 394.865px 306.36px;"><line x1="356.16" y1="303.57" x2="404.15" y2="301.62" style="fill: none; stroke: rgb(255, 183, 64); stroke-linecap: round; stroke-linejoin: round; transform-origin: 380.155px 302.595px;" id="elob89ra56t6" class="animable"></line><line x1="420.01" y1="292.88" x2="427.14" y2="292.59" style="fill: none; stroke: rgb(255, 183, 64); stroke-linecap: round; stroke-linejoin: round; transform-origin: 423.575px 292.735px;" id="ellighdpeq1t" class="animable"></line><line x1="379.16" y1="294.54" x2="414.54" y2="293.1" style="fill: none; stroke: rgb(255, 183, 64); stroke-linecap: round; stroke-linejoin: round; transform-origin: 396.85px 293.82px;" id="elkacriaw3nob" class="animable"></line><line x1="403.92" y1="319.38" x2="433.57" y2="318.18" style="fill: none; stroke: rgb(255, 183, 64); stroke-linecap: round; stroke-linejoin: round; transform-origin: 418.745px 318.78px;" id="el3o7dgmwlo2" class="animable"></line><line x1="385.59" y1="320.13" x2="398.51" y2="319.6" style="fill: none; stroke: rgb(255, 183, 64); stroke-linecap: round; stroke-linejoin: round; transform-origin: 392.05px 319.865px;" id="el9kyili77nns" class="animable"></line></g><defs>     <filter id="active" height="200%">         <feMorphology in="SourceAlpha" result="DILATED" operator="dilate" radius="2"></feMorphology>                <feFlood flood-color="#32DFEC" flood-opacity="1" result="PINK"></feFlood>        <feComposite in="PINK" in2="DILATED" operator="in" result="OUTLINE"></feComposite>        <feMerge>            <feMergeNode in="OUTLINE"></feMergeNode>            <feMergeNode in="SourceGraphic"></feMergeNode>        </feMerge>    </filter>    <filter id="hover" height="200%">        <feMorphology in="SourceAlpha" result="DILATED" operator="dilate" radius="2"></feMorphology>                <feFlood flood-color="#ff0000" flood-opacity="0.5" result="PINK"></feFlood>        <feComposite in="PINK" in2="DILATED" operator="in" result="OUTLINE"></feComposite>        <feMerge>            <feMergeNode in="OUTLINE"></feMergeNode>            <feMergeNode in="SourceGraphic"></feMergeNode>        </feMerge>            <feColorMatrix type="matrix" values="0   0   0   0   0                0   1   0   0   0                0   0   0   0   0                0   0   0   1   0 "></feColorMatrix>    </filter></defs></svg>